<svg width="32" height="32" viewBox="0 0 32 32" fill="none" xmlns="http://www.w3.org/2000/svg">
<path d="M32 0H0V32H32V0Z" fill="#064061"/>
<path d="M16.1637 4.64145C7.43592 6.02379 1.48128 14.2196 2.86363 22.9474C4.24597 31.6752 12.4418 37.6298 21.1696 36.2475C29.8974 34.8651 35.852 26.6693 34.4696 17.9415C33.0873 9.21375 24.8914 3.25911 16.1637 4.64145Z" fill="#98DAFF"/>
<path d="M7.12732 17.8552C7.14275 18.7391 7.62573 19.5787 8.47 20.1891C9.31428 20.7996 10.4507 21.131 11.6293 21.1105C12.8078 21.0899 13.932 20.719 14.7544 20.0794C15.5769 19.4399 16.0303 18.584 16.0149 17.7001" fill="#064061"/>
<path d="M8.39839 14.2769C8.38982 13.7861 8.08444 13.3934 7.71631 13.3998C7.34818 13.4062 7.05669 13.8093 7.06526 14.3002C7.07382 14.791 7.3792 15.1837 7.74734 15.1773C8.11547 15.1709 8.40696 14.7678 8.39839 14.2769Z" fill="#064061"/>
<path d="M15.5084 14.1528C15.4999 13.662 15.1945 13.2693 14.8264 13.2757C14.4582 13.2821 14.1667 13.6852 14.1753 14.1761C14.1839 14.6669 14.4892 15.0596 14.8574 15.0532C15.2255 15.0468 15.517 14.6436 15.5084 14.1528Z" fill="#064061"/>
</svg>
